<svg width="31" height="32" viewBox="0 0 31 32" fill="none" xmlns="http://www.w3.org/2000/svg">
<path d="M15.5 0.5C6.93625 0.5 0 7.61169 0 16.3921C0 23.4243 4.43687 29.3639 10.5981 31.4696C11.3731 31.6087 11.6637 31.1319 11.6637 30.7148C11.6637 30.3373 11.6444 29.0858 11.6444 27.7549C7.75 28.4899 6.7425 26.7815 6.4325 25.8876C6.25812 25.4307 5.5025 24.0202 4.84375 23.6428C4.30125 23.3448 3.52625 22.6098 4.82438 22.59C6.045 22.5701 6.91688 23.7421 7.2075 24.2189C8.6025 26.6226 10.8306 25.9472 11.7219 25.53C11.8575 24.497 12.2644 23.8017 12.71 23.4044C9.26125 23.0071 5.6575 21.6364 5.6575 15.5577C5.6575 13.8295 6.25813 12.3992 7.24625 11.2867C7.09125 10.8894 6.54875 9.2605 7.40125 7.07534C7.40125 7.07534 8.69938 6.65817 11.6637 8.70427C12.9037 8.3467 14.2213 8.16792 15.5388 8.16792C16.8563 8.16792 18.1738 8.3467 19.4138 8.70427C22.3781 6.63831 23.6763 7.07534 23.6763 7.07534C24.5288 9.2605 23.9863 10.8894 23.8313 11.2867C24.8194 12.3992 25.42 13.8096 25.42 15.5577C25.42 21.6563 21.7969 23.0071 18.3481 23.4044C18.91 23.901 19.3944 24.8546 19.3944 26.3445C19.3944 28.47 19.375 30.1784 19.375 30.7148C19.375 31.1319 19.6656 31.6286 20.4406 31.4696C23.5178 30.4049 26.1918 28.3773 28.086 25.6725C29.9803 22.9677 30.9995 19.7219 31 16.3921C31 7.61169 24.0638 0.5 15.5 0.5Z" fill="white"/>
</svg>
