<svg width="31" height="32" viewBox="0 0 31 32" fill="none" xmlns="http://www.w3.org/2000/svg">
<path d="M0 0.5H31V31.5H0V0.5Z" fill="#F7DF1E"/>
<path d="M8.15149 26.4062L10.5237 24.9705C10.9814 25.782 11.3978 26.4686 12.3964 26.4686C13.3537 26.4686 13.9573 26.0942 13.9573 24.6376V14.7324H16.8705V24.6788C16.8705 27.6961 15.1018 29.0696 12.5213 29.0696C10.1908 29.0696 8.83809 27.8626 8.15137 26.406" fill="black"/>
<path d="M18.4528 26.0942L20.8247 24.7208C21.4492 25.7406 22.2608 26.4897 23.6965 26.4897C24.9037 26.4897 25.6733 25.8861 25.6733 25.0537C25.6733 24.0549 24.8826 23.7011 23.5508 23.1186L22.8227 22.8062C20.7208 21.9117 19.3267 20.788 19.3267 18.4157C19.3267 16.2307 20.9914 14.5659 23.5926 14.5659C25.4446 14.5659 26.7764 15.2111 27.7335 16.8966L25.4652 18.3534C24.9657 17.4586 24.4249 17.1049 23.5925 17.1049C22.7392 17.1049 22.1982 17.6459 22.1982 18.3534C22.1982 19.2273 22.7392 19.5813 23.9877 20.1223L24.716 20.4344C27.1923 21.4958 28.5865 22.5777 28.5865 25.0122C28.5865 27.6344 26.5264 29.07 23.7588 29.07C21.0537 29.07 19.3057 27.7799 18.4526 26.0943" fill="black"/>
</svg>
