<svg width="31" height="32" viewBox="0 0 31 32" fill="none" xmlns="http://www.w3.org/2000/svg">
<path d="M21.4797 22.1502C22.6237 22.0254 23.4916 20.9866 23.4521 19.7399C23.4127 18.4933 22.4264 17.496 21.243 17.496H21.1642C19.9411 17.5375 18.9944 18.6179 19.0339 19.9061C19.0734 20.5294 19.31 21.0696 19.665 21.4436C18.3238 24.2279 16.2725 26.264 13.1955 27.9678C11.1047 29.1313 8.93502 29.5469 6.76538 29.2561C4.99015 29.0067 3.60944 28.1757 2.74144 26.8042C1.47916 24.7681 1.36085 22.5656 2.42599 20.3632C3.17556 18.7841 4.35889 17.6206 5.10846 17.0388C4.95067 16.4986 4.71394 15.5844 4.59563 14.9196C-1.12448 19.2829 -0.532693 25.1836 1.20306 27.9678C2.50482 30.0456 5.14794 31.3338 8.06714 31.3338C8.85607 31.3338 9.64499 31.2506 10.434 31.043C15.4835 30.004 19.3101 26.8458 21.4797 22.1502ZM28.4228 16.9973C25.4246 13.2989 21.0064 11.2628 15.9569 11.2628H15.3257C14.9707 10.5148 14.2211 10.0161 13.3927 10.0161H13.3138C12.091 10.0576 11.1443 11.138 11.1836 12.4263C11.2231 13.6729 12.2093 14.6702 13.3927 14.6702H13.4716C14.3394 14.6287 15.089 14.0469 15.4046 13.2573H16.1147C19.1128 13.2573 21.9531 14.1715 24.5174 15.9584C26.4897 17.3298 27.9099 19.1167 28.6988 21.2774C29.3695 23.0228 29.33 24.7265 28.6199 26.181C27.5154 28.3833 25.6613 29.5885 23.2155 29.5885C21.6375 29.5885 20.1385 29.0897 19.3494 28.7157C18.9156 29.1313 18.1265 29.7961 17.5742 30.2118C19.2706 31.0428 21.0064 31.5 22.6632 31.5C26.4503 31.5 29.2512 29.2975 30.3163 27.0952C31.4603 24.6849 31.3813 20.5294 28.4228 16.9973ZM8.38271 22.8564C8.42219 24.1031 9.40838 25.1004 10.5918 25.1004H10.6708C11.8937 25.0589 12.8404 23.9784 12.8009 22.6902C12.7616 21.4435 11.7753 20.4463 10.5918 20.4463H10.513C10.434 20.4463 10.3156 20.4463 10.2369 20.4877C8.61945 17.662 7.94883 14.5871 8.18557 11.2626C8.34324 8.76934 9.13228 6.60844 10.513 4.82154C11.657 3.284 13.8661 2.53602 15.3652 2.49456C19.5467 2.4114 21.3218 7.89661 21.4402 10.0991C21.9531 10.2237 22.821 10.5147 23.4127 10.7224C22.9393 3.99065 18.9944 0.5 15.2074 0.5C11.657 0.5 8.38271 3.20109 7.08083 7.19034C5.26624 12.5094 6.44969 17.6206 8.6588 21.6514C8.46167 21.9422 8.34324 22.3994 8.38271 22.8565V22.8564Z" fill="#764ABC"/>
</svg>
